<svg xmlns="http://www.w3.org/2000/svg" viewBox="0 0 108.63 160.35"><g id="Layer_2" data-name="Layer 2"><g id="Layer_1-2" data-name="Layer 1"><path d="M27,31.87H80.73c-1.1-4.18-4.43-4.95-7.79-5.53-6.84-1.17-13.61-8.29-14.22-15.08A6.18,6.18,0,0,1,63.28,4.9c2.87-.56,4.86.76,5.87,4a10.93,10.93,0,0,0,5.75,6.87c2.31,1.15,3.3.65,3.39-1.89s-.07-4.84,0-7.25A5.71,5.71,0,0,1,84,.77c2.79.07,5.37,3,5.3,6.08,0,2.33-.2,4.66-.31,7s.81,2.83,2.9,2c3-1.14,4.69-3.6,6.27-6.18.35-.56.66-1.15,1-1.74,1.49-2.88,3.67-4.3,5.76-3.76s4.08,3.94,3.69,6.52c-.53,3.41-1.61,6.7-4.27,9.09A46.35,46.35,0,0,1,97.64,25a9.81,9.81,0,0,1-4.74,1.19c-2.48.07-4.38.52-5.15,3.27a20.46,20.46,0,0,1-2.09,3.72c1.89.23,3.3.5,4.71.56a9.44,9.44,0,0,1,9,9.1c.1,5.33,0,10.66,0,16,0,1.79.06,3.74-2,4.36-2.41.71-5,1.12-7.11-.74a7.93,7.93,0,0,1-2.9-6.12,66.67,66.67,0,0,0-.5-8.48A3.61,3.61,0,0,0,85,45.26a106.46,106.46,0,0,0-10.8-3c-2.66-.59-3.26.05-3.36,2.79,0,.83,0,1.67,0,2.5,0,4.67.4,5,5.18,4.91,1.48,0,3.22-.19,4.37.5a7.59,7.59,0,0,1,2.77,3.68c.68,1.77-.47,3.11-2.15,3.63a18.7,18.7,0,0,1-5,.95c-12.14.2-24.28.26-36.41.45-3.24,0-6.48.64-9.7.49a12.93,12.93,0,0,1-5.73-1.8c-2.21-1.27-2.06-4.22-.12-5.94,2.19-1.93,4.74-2.12,7.48-2,5.84.29,5.85.24,5.8-5.6,0-4-.29-4.27-4.24-4.28-1.42,0-2.83,0-4.24,0-5.39.28-8.64,3.11-9.51,8.43a45.56,45.56,0,0,0-.36,5.73,6.45,6.45,0,0,1-6.28,6.4c-3.49-.08-6-2.86-5.86-6.64.17-4.07.25-8.18.82-12.2a13,13,0,0,1,7.24-9.9c1.86-1,4.12-1.16,6.19-1.75.84-.24,1.65-.61,2.45-.91a34.7,34.7,0,0,0-3.17-4,6.12,6.12,0,0,0-3-1.49C7.94,24.52,2.92,19.63.23,11.31-.91,7.79,2.34,2,6.64,2.74c2.86.5,4.52,1.8,4.74,5.08a8.47,8.47,0,0,0,4,6.55c2.2,1.53,3.42.87,3.49-1.78.06-2.33,0-4.67,0-7,0-3,2.62-4.27,4.63-5.36,1.12-.61,3.48.1,4.72,1,1.05.75,1.67,2.59,1.82,4,.25,2.56-.11,5.16,0,7.74s.78,2.76,2.93,1.69a7.88,7.88,0,0,0,4.44-5.35c1-4,6-6.37,8.89-4.45a4.34,4.34,0,0,1,1.84,2.48c.55,3.14.58,6.21-1.46,9.07a24.31,24.31,0,0,1-14.41,9.84,4.27,4.27,0,0,0-2,1.27C29.25,28.78,28.31,30.16,27,31.87ZM53.42,51.44c7.81.2,7.64.55,7.53-7.09a2.35,2.35,0,0,0-2.62-2.62c-2.82,0-5.66-.17-8.46.09a3.32,3.32,0,0,0-2.31,2c-1.43,5.85-.06,7.55,5.73,7.59Z"/><path d="M60.18,78.42c2.34,1.65,4.52,3.59,7,4.88A41.27,41.27,0,0,1,78.4,92.23c1.78,1.91,1.47,8.15-.23,10.19C72.72,109,67,115.36,61.92,122.22c-5.21,7.06-9,14.87-8.53,24.1.13,2.49,0,5,0,7.5,0,3.58-2.24,6.14-5.54,6.51-2.58.29-6.17-2.51-6.32-5.63-.38-8.19-1.56-16.5,2.58-24.25,1.7-3.2,3-6.59,4.72-9.79a12,12,0,0,1,2.71-2.87c2.48-2.26,2.35-4.49-.41-6.26-2.51-1.61-5-3.27-7.47-4.91-3.1-2-4.76-1.61-6.74,1.52a63.65,63.65,0,0,1-3.77,5.2c-1.11,1.42-5.92,1.62-7.5.4a5,5,0,0,1-.92-6.71,97.21,97.21,0,0,1,16.8-19.16,24.32,24.32,0,0,0,5.67-7.66c1.08-2.21.77-3-1.67-2.8-5.88.48-11.74,1.13-17.61,1.72-2.14.21-4.3.35-6.42.7-5.3.86-7.4,3.11-7.47,7.6-.12,7.58-.64,15.15-1.22,22.7a37.74,37.74,0,0,1-1.65,7.28c-.5,1.73-4.51,3.39-6.64,2.94-2.44-.53-4.57-3-4.35-5.33.39-4,1.14-7.92,1.37-11.9q.63-10.84.81-21.73c.08-4.73,1.66-8,6.38-9.83a38.64,38.64,0,0,1,13.51-3c8.81-.17,17.6-.87,26.41-.94,7.38-.07,14.78.48,22.17.67,6.48.17,13,.35,19.44.28,3.41,0,6.25,1.22,9.21,2.64,4.75,2.28,6.19,6.07,6.28,11,.15,8.33.57,16.65,1,25,.12,2.24.72,4.44,1,6.67.46,3.77-.43,5.4-3.32,6.34a5.71,5.71,0,0,1-7-3.24,24.8,24.8,0,0,1-1.74-7c-.83-8.45-1.42-16.93-2.18-25.39a4.87,4.87,0,0,0-4.34-4.78c-8.5-.92-17-1.72-25.52-2.51a16.78,16.78,0,0,0-3.14.26Zm7,19.16a6.26,6.26,0,0,0-1.43-1.71A32.5,32.5,0,0,0,59,92.22a9.13,9.13,0,0,0-5.16.42c-1.42.46-2.59,1.68-3.91,2.49-1.5.92-1.75,2.16-.46,3.14,3,2.3,6,4.58,9.14,6.78a3.26,3.26,0,0,0,2.09.5C62.62,105.31,67.08,100,67.17,97.58Z"/></g></g></svg>