<svg width="834" height="470" viewBox="0 0 834 470" fill="none" xmlns="http://www.w3.org/2000/svg">
<path d="M250.787 186.182C248.19 186.464 245.585 186.7 242.998 187.026C234.955 188.016 228.226 191.915 221.624 196.332C216.263 200.121 210.588 203.446 204.663 206.273C196.909 209.784 189.181 208.32 181.929 204.017C162.242 192.349 147.541 176.468 139.446 154.772C137.618 149.882 135.175 145.234 132.95 140.495C131.372 137.095 131.783 135.593 134.663 133.054C135.942 132.02 137.008 130.746 137.798 129.304C138.362 128.03 139.296 126.954 140.479 126.216C141.662 125.478 143.038 125.112 144.431 125.164C149.414 124.975 154.446 125.154 159.402 124.709C168.47 123.87 177.525 122.726 186.57 121.655C192.944 120.687 199.446 120.999 205.698 122.571C210.784 123.84 215.487 126.32 219.407 129.799C232.945 142.397 245.112 156.39 255.704 171.546C257.126 173.821 258.146 176.323 258.72 178.943C259.597 182.389 258.321 184.182 254.936 185.141C253.547 185.419 252.135 185.7 250.746 185.978L250.787 186.182Z" fill="#C6B4E4" fill-opacity="0.5"/>
<path d="M141.055 168.558C145.788 190.736 138.855 209.514 124.299 226.05C118.63 232.585 112.028 238.248 104.706 242.858C95.836 248.367 91.0867 246.759 86.7927 237.345C81.7027 226.196 76.157 215.256 70.9121 204.162C69.5247 201.244 68.4789 198.139 67.2418 195.144C66.1387 192.325 65.6788 189.295 65.8956 186.275C66.1124 183.256 67.0004 180.322 68.4949 177.688C73.6641 167.574 81.8594 159.32 91.9402 154.077C97.4232 151.25 103.051 148.713 108.8 146.477C113.169 144.635 117.023 142.469 118.551 137.431C118.762 136.979 119.062 136.575 119.432 136.241C119.803 135.907 120.237 135.652 120.708 135.489C121.179 135.327 121.679 135.261 122.176 135.295C122.673 135.329 123.159 135.463 123.603 135.689C125.76 136.693 127.645 138.2 129.098 140.083C134.954 148.677 139.02 158.361 141.055 168.558Z" fill="#C6B4E4" fill-opacity="0.5"/>
<path d="M76.3898 150.559C63.3857 153.154 52.027 153.551 41.2772 148.099C37.9415 146.292 34.8161 144.122 31.9581 141.628C26.846 137.37 21.9982 132.776 16.9453 128.459C15.2091 127.063 13.3324 125.852 11.3455 124.844C8.68203 123.363 7.37607 121.328 8.54823 118.302C9.60574 115.57 11.1177 113.035 13.0202 110.807C23.3284 99.6855 34.442 89.7527 49.3647 84.9053C60.2197 81.3903 70.7863 80.4652 81.6231 84.9293C91.4308 88.9835 100.993 93.3471 109.109 100.318C111.221 102.343 113.189 104.512 114.999 106.811C115.471 107.341 115.767 108.005 115.844 108.711C115.921 109.417 115.776 110.129 115.429 110.748C114.519 112.864 113.758 115.04 113.153 117.261C112.755 118.753 112.687 120.313 112.954 121.833C113.22 123.354 113.815 124.798 114.696 126.065C115.841 128.085 116.582 130.308 116.879 132.611C117.047 133.453 115.821 135.023 114.873 135.378C105.576 139.458 96.2643 143.469 86.853 147.217C83.4243 148.508 79.932 149.623 76.3898 150.559Z" fill="#C6B4E4" fill-opacity="0.5"/>
<path d="M133.099 108.469C129.202 105.199 125.107 106.75 120.844 107.459C120.353 106.131 119.948 104.773 119.63 103.394C118.612 98.8112 116.411 94.5752 113.247 91.1065C108.91 85.7477 104.696 80.2934 100.235 75.0302C97.2354 71.4202 95.0126 67.2306 93.7057 62.7231C92.3988 58.2156 92.0359 53.487 92.6396 48.8326C93.2616 42.8647 94.2214 36.9367 95.5143 31.0772C96.6423 25.5745 98.212 20.1494 99.3446 14.6695C100.852 7.26886 102.401 6.24977 109.823 7.84526C116.703 9.54785 123.142 12.6917 128.714 17.0686C139.563 25.033 148.543 34.5536 153.687 47.2773C156.201 53.1182 156.881 59.5853 155.635 65.8216C152.88 80.9146 145.85 94.9014 135.377 106.121C134.68 106.899 133.946 107.613 133.099 108.469Z" fill="#C6B4E4" fill-opacity="0.5"/>
<path d="M179.32 118.796C168.721 120.588 157.976 121.377 147.229 121.153C146.306 121.108 145.387 121.015 144.474 120.874C139.455 120.171 137.789 118.705 137.145 113.698C137.129 113.016 137.27 112.339 137.557 111.719C137.844 111.1 138.269 110.555 138.801 110.126C145.812 105.508 149.724 98.6451 153.421 91.4227C157.346 83.4662 162.915 76.4326 169.761 70.7868C176.607 65.141 184.574 61.0118 193.135 58.6722C204.73 55.565 216.803 54.6488 228.734 55.9708C233.893 56.4322 238.46 58.0768 241.049 63.2165C241.796 64.3883 242.264 65.7159 242.416 67.097C242.568 68.4781 242.402 69.8758 241.928 71.1823C240.807 73.9483 239.426 76.6013 237.802 79.1056C228.079 93.6361 215.931 105.503 199.404 112.161C192.958 114.868 185.994 116.636 179.32 118.796Z" fill="#C6B4E4" fill-opacity="0.5"/>
<path d="M136.136 119.197C136.245 119.744 136.354 120.29 136.276 120.85C136.482 126.749 133.155 131.554 128.514 132.031C125.821 132.097 123.204 131.13 121.202 129.329C119.2 127.528 117.964 125.029 117.748 122.346C117.479 120.237 117.64 118.096 118.221 116.051C118.569 114.592 119.31 113.257 120.362 112.187C121.414 111.118 122.738 110.356 124.191 109.983C125.645 109.611 127.172 109.641 128.609 110.072C130.046 110.503 131.338 111.317 132.346 112.428C133.959 114.422 135.365 116.576 136.541 118.856L136.136 119.197Z" fill="#C6B4E4" fill-opacity="0.5"/>
<path d="M723.311 366.777C720.972 365.166 718.659 363.506 716.294 361.942C708.959 357.056 700.532 355.747 691.822 354.998C684.599 354.572 677.464 353.503 670.496 351.8C661.518 349.404 656.272 342.525 653.535 333.417C646.094 308.706 645.885 283.767 655.433 258.315C657.581 252.576 659.045 246.614 660.757 240.726C661.999 236.514 663.457 235.451 667.713 235.223C669.533 235.208 671.357 234.821 673.081 234.084C674.495 233.337 676.063 233.035 677.584 233.217C679.104 233.4 680.507 234.058 681.61 235.106C685.838 238.517 689.831 242.296 694.227 245.456C702.29 251.216 710.569 256.689 718.786 262.222C724.736 265.929 729.836 270.885 733.789 276.802C737.014 281.607 739.021 287.232 739.64 293.198C741.344 314.329 740.883 335.738 738.263 357.067C737.732 360.148 736.701 363.145 735.217 365.929C733.366 369.678 730.982 370.383 727.49 368.818C726.144 368.07 724.776 367.31 723.43 366.563L723.311 366.777Z" fill="#C6B4E4" fill-opacity="0.5"/>
<path d="M646.464 271.942C633.8 295.414 614.105 307.422 589.831 311.923C580.307 313.76 570.667 314.139 561.223 313.048C549.839 311.656 547.144 306.787 550.646 295.181C554.789 281.433 558.402 267.547 562.377 253.738C563.416 250.1 564.875 246.538 566.095 242.938C567.294 239.594 569.177 236.522 571.608 233.945C574.038 231.369 576.955 229.352 580.145 228.044C591.931 222.606 604.809 221.029 616.988 223.531C623.593 224.915 630.101 226.664 636.485 228.773C641.442 230.247 646.218 231.058 651.231 227.597C651.741 227.34 652.288 227.189 652.841 227.154C653.393 227.118 653.94 227.199 654.448 227.391C654.956 227.582 655.414 227.882 655.797 228.27C656.179 228.659 656.477 229.129 656.673 229.653C657.693 232.112 658.114 234.83 657.901 237.579C656.292 249.566 652.403 261.252 646.464 271.942Z" fill="#C6B4E4" fill-opacity="0.5"/>
<path d="M606.867 209.174C594.266 202.174 584.655 194.368 579.906 181.707C578.518 177.674 577.574 173.463 577.091 169.152C576.075 161.624 575.526 153.982 574.603 146.443C574.221 143.932 573.586 141.486 572.708 139.146C571.628 135.892 572.075 133.111 575.294 131.215C578.2 129.503 581.331 128.297 584.554 127.647C601.304 124.994 617.829 123.995 633.683 130.336C645.208 134.958 654.564 141.717 660.121 153.547C665.14 164.266 669.726 175.088 671.181 187.231C671.404 190.581 671.399 193.959 671.168 197.34C671.16 198.159 670.907 198.973 670.444 199.667C669.981 200.361 669.33 200.901 668.583 201.213C666.259 202.472 664.012 203.895 661.858 205.47C660.419 206.534 659.199 207.897 658.284 209.464C657.368 211.031 656.778 212.765 656.556 214.546C655.987 217.197 654.937 219.741 653.462 222.038C652.972 222.921 650.795 223.461 649.753 223.1C639.084 220.109 628.455 217.045 617.941 213.671C614.166 212.374 610.47 210.873 606.867 209.174Z" fill="#C6B4E4" fill-opacity="0.5"/>
<path d="M684.77 211.851C684.014 206.091 679.498 204.551 675.473 202.127C676.061 200.573 676.742 199.053 677.51 197.576C680.094 192.698 681.45 187.283 681.443 181.869C681.883 173.902 682.496 165.937 682.765 157.968C682.998 152.544 684.301 147.155 686.592 142.137C688.883 137.119 692.113 132.579 696.08 128.801C701.043 123.848 706.252 119.173 711.684 114.8C716.714 110.632 722.049 106.851 727.066 102.706C733.823 97.0925 735.854 97.2838 740.751 104.064C745.123 110.55 748.058 118.023 749.362 125.99C752.318 140.995 752.58 156.066 747.306 171.278C745.01 178.371 740.743 184.712 735.068 189.459C721.55 201.137 705.349 208.74 688.391 211.364C687.238 211.567 686.104 211.686 684.77 211.851Z" fill="#C6B4E4" fill-opacity="0.5"/>
<path d="M714.974 254.427C704.945 248.429 695.545 241.419 686.898 233.491C686.174 232.787 685.49 232.042 684.846 231.258C681.255 227.015 680.982 224.49 684.19 219.496C684.685 218.867 685.306 218.356 686.003 218.002C686.701 217.647 687.457 217.46 688.212 217.453C697.408 218.315 705.735 214.917 714.156 211.039C723.31 206.66 733.125 204.299 742.952 204.111C752.778 203.924 762.392 205.914 771.159 209.951C782.986 215.475 793.571 223.325 802.369 233.097C806.256 237.224 808.775 241.995 807.063 248.507C806.801 250.104 806.194 251.642 805.289 253.001C804.384 254.361 803.204 255.505 801.841 256.347C798.859 258.045 795.746 259.452 792.546 260.551C773.732 266.711 754.916 268.716 736.395 262.861C729.089 260.676 722.058 257.27 714.974 254.427Z" fill="#C6B4E4" fill-opacity="0.5"/>
<path d="M679.259 223.745C678.941 224.318 678.623 224.89 678.142 225.341C673.91 230.827 667.596 232.784 663.434 229.879C661.176 228.003 659.752 225.247 659.454 222.178C659.156 219.11 660.006 215.96 661.831 213.376C663.183 211.274 664.913 209.452 666.915 208.019C668.289 206.95 669.892 206.274 671.553 206.062C673.213 205.851 674.868 206.113 676.338 206.821C677.807 207.528 679.037 208.654 679.894 210.077C680.752 211.499 681.203 213.165 681.202 214.894C681.037 217.859 680.583 220.819 679.847 223.728L679.259 223.745Z" fill="#C6B4E4" fill-opacity="0.5"/>
<path d="M256.288 22.3803C258.262 23.1025 260.225 23.8607 262.209 24.5468C268.365 26.6993 274.61 26.2842 280.948 25.4493C286.167 24.6264 291.447 24.2492 296.73 24.3216C303.576 24.551 308.63 28.3612 312.33 34.0514C322.377 49.4865 327.325 66.1853 325.434 84.7255C325.011 88.9048 325.117 93.1295 325.033 97.3418C324.96 100.358 324.129 101.296 321.146 102.101C319.854 102.391 318.631 102.93 317.547 103.689C316.686 104.408 315.629 104.851 314.512 104.962C313.396 105.073 312.272 104.847 311.285 104.313C307.622 102.674 304.055 100.751 300.321 99.3057C293.478 96.6795 286.537 94.2781 279.628 91.8275C274.684 90.2542 270.103 87.712 266.153 84.3493C262.935 81.6208 260.425 78.1553 258.837 74.2481C253.558 60.3334 249.765 45.9001 247.523 31.1892C247.308 29.041 247.464 26.872 247.984 24.7767C248.579 21.9776 250.139 21.1387 252.923 21.6526C254.024 21.9477 255.143 22.2476 256.244 22.5426L256.288 22.3803Z" fill="#C6B4E4" fill-opacity="0.5"/>
<path d="M329.19 74.2014C333.678 56.5119 345.373 45.4329 361.77 38.6882C368.189 35.9937 374.971 34.2599 381.898 33.5428C390.262 32.7287 393.115 35.5817 392.859 43.9052C392.558 53.7639 392.661 63.634 392.492 73.5085C392.453 76.1086 392.101 78.7215 391.927 81.3238C391.718 83.7512 390.97 86.1013 389.737 88.203C388.505 90.3047 386.818 92.1049 384.801 93.4726C377.467 98.929 368.612 101.964 359.469 102.154C354.505 102.24 349.54 102.065 344.595 101.63C340.786 101.402 337.233 101.591 334.335 104.682C334.022 104.933 333.661 105.118 333.275 105.227C332.889 105.336 332.485 105.365 332.087 105.315C331.689 105.264 331.305 105.134 330.958 104.932C330.612 104.73 330.309 104.46 330.069 104.138C328.87 102.645 328.047 100.886 327.67 99.0096C326.507 90.7215 327.024 82.2848 329.19 74.2014Z" fill="#C6B4E4" fill-opacity="0.5"/>
<path d="M369.43 110.238C379.738 113 388.076 116.762 393.89 124.527C395.653 127.019 397.134 129.699 398.308 132.517C400.479 137.411 402.34 142.454 404.448 147.37C405.203 148.996 406.125 150.539 407.2 151.974C408.594 153.992 408.811 155.926 406.887 157.692C405.15 159.286 403.156 160.576 400.989 161.506C389.587 165.857 378.028 169.064 365.533 167.243C356.447 165.911 348.493 162.813 342.264 155.73C336.632 149.309 331.288 142.753 327.916 134.83C327.113 132.616 326.466 130.35 325.98 128.046C325.828 127.495 325.851 126.911 326.047 126.374C326.243 125.837 326.601 125.375 327.072 125.051C328.483 123.85 329.807 122.55 331.036 121.163C331.855 120.229 332.46 119.127 332.809 117.935C333.158 116.743 333.244 115.489 333.06 114.261C332.954 112.395 333.211 110.527 333.818 108.759C333.997 108.092 335.441 107.396 336.251 107.478C344.414 107.847 352.562 108.271 360.689 108.921C363.623 109.211 366.541 109.651 369.43 110.238Z" fill="#C6B4E4" fill-opacity="0.5"/>
<path d="M313.514 120.396C315.16 124.144 318.668 124.485 321.997 125.493C321.878 126.626 321.686 127.75 321.424 128.858C320.525 132.528 320.604 136.369 321.65 139.999C322.87 145.412 323.967 150.849 325.31 156.237C326.188 159.911 326.299 163.726 325.636 167.444C324.972 171.162 323.549 174.704 321.455 177.847C318.879 181.932 316.074 185.867 313.053 189.634C310.278 193.203 307.211 196.558 304.441 200.109C300.716 204.912 299.235 205.095 294.448 201.298C290.091 197.618 286.565 193.055 284.104 187.911C279.114 178.298 276.027 168.227 276.85 157.213C277.117 152.102 278.932 147.194 282.053 143.138C289.42 133.229 299.478 125.642 311.033 121.278C311.813 120.966 312.597 120.711 313.514 120.396Z" fill="#C6B4E4" fill-opacity="0.5"/>
<path d="M283.841 96.4754C292.128 98.9602 300.162 102.22 307.837 106.212C308.487 106.573 309.118 106.967 309.726 107.395C313.097 109.69 313.777 111.342 312.457 115.184C312.225 115.682 311.883 116.121 311.455 116.465C311.027 116.81 310.526 117.052 309.989 117.172C303.284 118.005 298.016 121.563 292.774 125.457C287.107 129.8 280.581 132.89 273.629 134.524C266.677 136.158 259.457 136.299 252.446 134.936C242.972 133.046 233.934 129.404 225.796 124.198C222.237 122.027 219.528 119.212 219.492 114.581C219.371 113.469 219.506 112.345 219.888 111.294C220.271 110.243 220.889 109.294 221.696 108.52C223.491 106.923 225.433 105.501 227.497 104.273C239.691 97.2531 252.687 93.0198 266.985 94.1051C272.601 94.4496 278.256 95.6557 283.841 96.4754Z" fill="#C6B4E4" fill-opacity="0.5"/>
<path d="M315.147 111.575C315.263 111.142 315.379 110.709 315.634 110.332C317.588 106.002 321.701 103.72 325.22 105.031C327.187 105.943 328.73 107.573 329.533 109.586C330.336 111.599 330.337 113.842 329.537 115.856C328.979 117.473 328.1 118.961 326.952 120.23C326.181 121.158 325.171 121.858 324.03 122.254C322.89 122.651 321.663 122.729 320.482 122.48C319.3 122.231 318.209 121.664 317.326 120.842C316.442 120.019 315.8 118.97 315.469 117.81C315.015 115.796 314.769 113.74 314.732 111.676L315.147 111.575Z" fill="#C6B4E4" fill-opacity="0.5"/>
<path d="M616.843 416.481C617.465 415.515 618.069 414.534 618.708 413.582C620.683 410.614 623.627 408.814 626.765 407.18C629.398 405.898 631.897 404.389 634.235 402.669C637.214 400.377 638.096 396.988 637.691 393.157C636.598 382.759 632.766 373.4 625.207 365.366C623.504 363.555 622.022 361.552 620.46 359.617C619.335 358.235 618.623 358.064 616.997 358.64C616.314 358.918 615.572 359.057 614.812 359.049C614.166 358.989 613.533 359.12 612.993 359.425C612.453 359.729 612.032 360.194 611.784 360.757C610.739 362.69 609.839 364.724 608.692 366.589C606.581 369.997 604.345 373.331 602.141 376.678C600.499 378.989 599.37 381.635 598.82 384.463C598.368 386.761 598.5 389.177 599.204 391.504C601.88 399.671 605.409 407.606 609.732 415.175C610.414 416.244 611.269 417.205 612.26 418.015C613.54 419.129 614.542 419.022 615.601 417.894C615.987 417.405 616.379 416.908 616.765 416.419L616.843 416.481Z" fill="#C6B4E4" fill-opacity="0.5"/>
<path d="M630.695 369.07C639.108 375.879 648.352 377.307 658.13 375.216C661.978 374.423 665.64 373.066 668.999 371.189C673.035 368.899 673.279 366.659 670.151 362.863C666.447 358.366 662.919 353.735 659.268 349.189C658.309 347.99 657.206 346.885 656.186 345.728C655.213 344.664 654.028 343.808 652.715 343.222C651.403 342.637 649.997 342.336 648.599 342.343C643.342 342.142 638.281 343.554 634.122 346.384C631.87 347.928 629.712 349.594 627.656 351.375C626.035 352.697 624.377 353.743 621.961 353.228C621.73 353.211 621.502 353.24 621.29 353.313C621.077 353.385 620.886 353.5 620.726 353.651C620.566 353.802 620.442 353.985 620.36 354.19C620.278 354.395 620.24 354.617 620.249 354.843C620.253 355.921 620.522 357.003 621.033 357.998C623.513 362.23 626.799 365.996 630.695 369.07Z" fill="#C6B4E4" fill-opacity="0.5"/>
<path d="M635.651 339.437C639.263 334.86 641.632 330.446 641.422 324.973C641.308 323.249 641.001 321.528 640.505 319.84C639.705 316.867 638.711 313.924 637.875 310.961C637.624 309.963 637.478 308.95 637.439 307.938C637.332 306.553 636.729 305.583 635.229 305.374C633.874 305.186 632.515 305.221 631.209 305.48C624.532 307.092 618.199 309.287 613.268 314.123C609.685 317.644 607.248 321.626 607.026 326.914C606.831 331.703 606.814 336.463 608.174 341.23C608.616 342.518 609.147 343.78 609.764 345.009C609.895 345.314 610.117 345.579 610.399 345.766C610.681 345.954 611.009 346.055 611.337 346.055C612.403 346.165 613.466 346.347 614.518 346.601C615.222 346.775 615.892 347.096 616.48 347.539C617.068 347.983 617.56 348.54 617.922 349.171C618.551 350.074 619.342 350.862 620.253 351.492C620.575 351.746 621.473 351.609 621.806 351.313C625.325 348.535 628.817 345.737 632.218 342.84C633.425 341.768 634.571 340.632 635.651 339.437Z" fill="#C6B4E4" fill-opacity="0.5"/>
<path d="M606.959 352.553C606.339 350.281 607.785 349.003 608.909 347.471C608.446 346.981 607.953 346.519 607.434 346.086C605.704 344.663 604.348 342.849 603.502 340.823C602.088 337.912 600.61 335.029 599.26 332.091C598.323 330.099 596.991 328.286 595.348 326.766C593.705 325.245 591.786 324.05 589.711 323.254C587.079 322.173 584.399 321.235 581.684 320.444C579.15 319.667 576.563 319.083 574.038 318.313C570.633 317.264 569.904 317.651 569.136 320.948C568.519 324.053 568.594 327.305 569.356 330.487C570.604 336.558 572.869 342.234 577.225 347.103C579.195 349.399 581.784 351.106 584.649 351.999C591.533 354.265 598.78 354.589 605.529 352.934C605.992 352.83 606.435 352.698 606.959 352.553Z" fill="#C6B4E4" fill-opacity="0.5"/>
<path d="M602.343 373.166C605.151 369.363 607.565 365.28 609.554 360.971C609.714 360.595 609.853 360.21 609.97 359.817C610.647 357.672 610.354 356.685 608.372 355.316C608.088 355.158 607.776 355.063 607.46 355.039C607.143 355.015 606.831 355.063 606.548 355.178C603.246 356.93 599.601 356.954 595.846 356.813C591.738 356.598 587.699 357.241 583.997 358.699C580.295 360.157 577.014 362.396 574.371 365.269C570.816 369.173 568.091 373.754 566.335 378.777C565.529 380.924 565.336 383.1 566.996 385.269C567.345 385.826 567.813 386.307 568.364 386.674C568.916 387.042 569.536 387.287 570.177 387.389C571.558 387.56 572.942 387.603 574.31 387.516C582.308 386.895 589.655 384.719 595.659 379.65C598.047 377.697 600.141 375.33 602.343 373.166Z" fill="#C6B4E4" fill-opacity="0.5"/>
<path d="M610.876 356.139C611.085 356.304 611.294 356.469 611.544 356.563C613.986 357.956 616.653 357.706 617.753 355.973C618.302 354.92 618.403 353.668 618.033 352.474C617.663 351.28 616.852 350.235 615.765 349.552C614.93 348.977 613.998 348.564 613.025 348.339C612.343 348.153 611.638 348.149 610.984 348.329C610.331 348.508 609.753 348.863 609.315 349.356C608.876 349.849 608.593 350.461 608.496 351.127C608.399 351.792 608.491 352.485 608.763 353.132C609.289 354.215 609.923 355.251 610.654 356.224L610.876 356.139Z" fill="#C6B4E4" fill-opacity="0.5"/>
<path d="M756.034 323.733C756.514 325.349 757.024 326.959 757.475 328.581C758.892 333.617 758.249 338.596 757.266 343.629C756.348 347.767 755.784 351.975 755.579 356.208C755.422 361.701 758.222 365.937 762.594 369.181C774.452 377.992 787.575 382.784 802.513 382.191C805.88 382.06 809.257 382.355 812.634 382.497C815.052 382.588 815.844 381.969 816.637 379.621C816.933 378.601 817.426 377.649 818.088 376.819C818.705 376.165 819.113 375.34 819.257 374.452C819.402 373.564 819.276 372.653 818.898 371.836C817.768 368.822 816.406 365.871 815.434 362.809C813.671 357.201 812.094 351.524 810.475 345.871C809.461 341.834 807.653 338.04 805.158 334.711C803.133 331.999 800.483 329.817 797.434 328.351C786.556 323.433 775.189 319.68 763.522 317.154C761.813 316.875 760.069 316.892 758.366 317.204C756.095 317.541 755.346 318.748 755.619 321.003C755.8 321.899 755.985 322.81 756.166 323.707L756.034 323.733Z" fill="#C6B4E4" fill-opacity="0.5"/>
<path d="M793.898 384.674C779.513 387.388 770.062 396.201 763.847 408.993C761.371 413.999 759.645 419.343 758.727 424.852C757.66 431.508 759.802 433.935 766.479 434.143C774.387 434.392 782.284 434.965 790.198 435.32C792.282 435.418 794.391 435.266 796.483 435.256C798.437 435.209 800.356 434.727 802.099 433.845C803.843 432.962 805.368 431.702 806.564 430.155C811.297 424.554 814.166 417.615 814.773 410.305C815.088 406.335 815.195 402.351 815.093 398.37C815.1 395.31 815.427 392.475 818.046 390.308C818.262 390.069 818.428 389.79 818.535 389.486C818.641 389.183 818.685 388.86 818.664 388.539C818.643 388.218 818.558 387.904 818.413 387.617C818.269 387.329 818.068 387.074 817.823 386.865C816.687 385.831 815.319 385.085 813.836 384.69C807.258 383.347 800.478 383.342 793.898 384.674Z" fill="#C6B4E4" fill-opacity="0.5"/>
<path d="M820.752 418.684C822.451 427.074 825.048 433.936 830.976 438.976C832.884 440.512 834.956 441.831 837.154 442.911C840.964 444.892 844.909 446.633 848.74 448.564C850.004 449.25 851.194 450.065 852.29 450.997C853.836 452.213 855.373 452.483 856.883 451.03C858.246 449.719 859.377 448.186 860.23 446.498C864.28 437.586 867.422 428.49 866.585 418.396C865.97 411.056 863.885 404.534 858.523 399.195C853.662 394.367 848.679 389.762 842.503 386.669C840.771 385.916 838.988 385.285 837.168 384.782C836.735 384.632 836.266 384.622 835.826 384.752C835.387 384.882 834.999 385.146 834.716 385.508C833.684 386.577 832.578 387.573 831.407 388.488C830.618 389.096 829.706 389.526 828.734 389.747C827.762 389.967 826.754 389.973 825.78 389.765C824.291 389.587 822.783 389.701 821.338 390.098C820.794 390.208 820.165 391.33 820.191 391.983C820.081 398.536 820.015 405.081 820.132 411.62C820.218 413.983 820.425 416.341 820.752 418.684Z" fill="#C6B4E4" fill-opacity="0.5"/>
<path d="M831.659 374.417C834.578 375.922 834.676 378.747 835.318 381.462C836.231 381.423 837.14 381.326 838.041 381.171C841.023 380.634 844.094 380.888 846.949 381.906C851.222 383.152 855.521 384.3 859.767 385.643C862.665 386.529 865.714 386.807 868.724 386.46C871.734 386.114 874.64 385.151 877.26 383.63C880.659 381.771 883.949 379.721 887.115 377.489C890.11 375.445 892.949 373.156 895.929 371.115C899.959 368.372 900.18 367.195 897.378 363.173C894.648 359.502 891.17 356.452 887.174 354.227C879.725 349.754 871.816 346.782 862.957 346.894C858.852 346.854 854.832 348.062 851.429 350.36C843.13 355.765 836.556 363.441 832.489 372.475C832.199 373.084 831.957 373.699 831.659 374.417Z" fill="#C6B4E4" fill-opacity="0.5"/>
<path d="M813.982 349.475C815.559 356.233 817.77 362.828 820.584 369.171C820.841 369.709 821.126 370.234 821.438 370.742C823.108 373.555 824.397 374.181 827.538 373.315C827.949 373.155 828.317 372.902 828.614 372.576C828.911 372.251 829.13 371.862 829.253 371.438C830.253 366.112 833.363 362.071 836.741 358.067C840.5 353.746 843.298 348.675 844.952 343.19C846.605 337.705 847.076 331.932 846.334 326.251C845.291 318.572 842.825 311.155 839.062 304.381C837.5 301.424 835.381 299.115 831.675 298.856C830.791 298.703 829.884 298.756 829.023 299.01C828.163 299.264 827.373 299.712 826.713 300.32C825.345 301.677 824.11 303.161 823.025 304.753C816.798 314.167 812.763 324.361 812.922 335.862C812.918 340.375 813.603 344.963 813.982 349.475Z" fill="#C6B4E4" fill-opacity="0.5"/>
<path d="M824.516 375.292C824.164 375.363 823.811 375.435 823.497 375.62C819.933 376.969 817.902 380.149 818.776 383.032C819.409 384.652 820.637 385.968 822.209 386.711C823.781 387.453 825.577 387.566 827.229 387.025C828.551 386.659 829.786 386.03 830.859 385.174C831.64 384.602 832.251 383.828 832.625 382.935C832.999 382.042 833.122 381.063 832.982 380.105C832.841 379.147 832.442 378.245 831.827 377.497C831.212 376.749 830.405 376.183 829.492 375.86C827.902 375.396 826.269 375.097 824.618 374.965L824.516 375.292Z" fill="#C6B4E4" fill-opacity="0.5"/>
<path d="M307.716 252.432C306.93 252.916 306.152 253.415 305.359 253.884C302.899 255.351 300.175 255.721 297.375 255.918C295.057 256.022 292.753 256.323 290.486 256.818C287.56 257.518 285.72 259.601 284.628 262.374C281.66 269.897 280.997 277.517 283.438 285.328C283.987 287.089 284.313 288.916 284.718 290.721C285.015 292.013 285.455 292.343 286.809 292.428C287.39 292.439 287.964 292.564 288.497 292.795C288.93 293.028 289.424 293.126 289.914 293.076C290.404 293.026 290.868 292.83 291.246 292.513C292.678 291.487 294.044 290.346 295.524 289.397C298.237 287.666 301.013 286.023 303.77 284.362C305.76 283.251 307.507 281.755 308.912 279.962C310.057 278.505 310.833 276.794 311.173 274.973C312.223 268.523 312.587 261.979 312.261 255.453C312.164 254.51 311.907 253.59 311.499 252.734C310.998 251.582 310.253 251.358 309.1 251.824C308.652 252.047 308.197 252.275 307.749 252.498L307.716 252.432Z" fill="#C6B4E4" fill-opacity="0.5"/>
<path d="M280.897 281.13C277.413 273.913 271.408 270.173 263.761 268.71C260.762 268.114 257.692 267.964 254.649 268.263C250.979 268.647 250.001 270.126 250.842 273.684C251.837 277.9 252.66 282.156 253.599 286.389C253.844 287.505 254.225 288.598 254.529 289.702C254.832 290.728 255.36 291.674 256.075 292.47C256.79 293.266 257.673 293.893 258.661 294.304C262.296 296.008 266.372 296.536 270.323 295.815C272.466 295.417 274.587 294.905 276.677 294.284C278.295 293.852 279.841 293.621 281.359 294.696C281.516 294.777 281.687 294.825 281.863 294.838C282.039 294.851 282.215 294.828 282.382 294.771C282.549 294.714 282.702 294.625 282.834 294.507C282.965 294.39 283.072 294.247 283.147 294.088C283.532 293.34 283.731 292.511 283.729 291.671C283.501 288.002 282.538 284.418 280.897 281.13Z" fill="#C6B4E4" fill-opacity="0.5"/>
<path d="M266.75 300.166C262.557 302.259 259.3 304.61 257.48 308.461C256.94 309.688 256.538 310.972 256.28 312.287C255.776 314.583 255.418 316.917 254.943 319.217C254.76 319.983 254.499 320.727 254.163 321.439C253.74 322.43 253.816 323.281 254.799 323.872C255.687 324.406 256.658 324.785 257.672 324.995C262.96 325.867 268.215 326.231 273.431 324.351C277.223 322.98 280.374 320.949 282.432 317.354C284.292 314.097 286.015 310.807 286.771 307.102C286.922 306.079 287.001 305.047 287.008 304.013C287.025 303.763 286.964 303.513 286.833 303.3C286.701 303.086 286.506 302.918 286.275 302.821C285.563 302.427 284.879 301.985 284.228 301.496C283.794 301.165 283.437 300.745 283.182 300.262C282.927 299.78 282.78 299.248 282.752 298.703C282.633 297.891 282.359 297.11 281.942 296.403C281.807 296.132 281.124 295.959 280.783 296.065C277.303 296.941 273.834 297.839 270.395 298.832C269.158 299.214 267.941 299.66 266.75 300.166Z" fill="#C6B4E4" fill-opacity="0.5"/>
<path d="M291.701 299.627C291.321 301.384 289.842 301.838 288.498 302.564C288.649 303.041 288.83 303.508 289.04 303.962C289.749 305.462 290.052 307.121 289.921 308.775C289.871 311.211 289.876 313.647 289.772 316.083C289.716 317.741 290.004 319.392 290.615 320.934C291.227 322.475 292.151 323.874 293.328 325.043C294.795 326.574 296.347 328.021 297.978 329.377C299.485 330.669 301.099 331.843 302.602 333.128C304.627 334.867 305.28 334.816 307.007 332.762C308.558 330.796 309.675 328.523 310.282 326.094C311.585 321.519 312.029 316.915 310.708 312.249C310.144 310.073 308.933 308.12 307.233 306.649C303.194 303.033 298.2 300.651 292.846 299.788C292.482 299.722 292.123 299.682 291.701 299.627Z" fill="#C6B4E4" fill-opacity="0.5"/>
<path d="M302.367 286.73C299.02 288.526 295.849 290.634 292.898 293.026C292.65 293.238 292.413 293.463 292.189 293.7C290.94 294.984 290.792 295.754 291.698 297.292C291.841 297.486 292.027 297.644 292.241 297.755C292.456 297.866 292.693 297.926 292.934 297.93C295.892 297.7 298.471 298.769 301.068 299.984C303.888 301.355 306.967 302.112 310.102 302.204C313.236 302.297 316.355 301.723 319.252 300.521C323.163 298.876 326.732 296.516 329.776 293.562C331.117 292.315 332.035 290.866 331.644 288.87C331.599 288.381 331.442 287.909 331.185 287.491C330.928 287.072 330.579 286.718 330.164 286.456C329.251 285.927 328.291 285.485 327.295 285.138C321.432 283.188 315.469 282.508 309.412 284.23C307.026 284.871 304.698 285.887 302.367 286.73Z" fill="#C6B4E4" fill-opacity="0.5"/>
<path d="M290.22 295.977C290.132 295.801 290.044 295.625 289.901 295.486C288.68 293.794 286.71 293.174 285.311 294.046C284.545 294.611 284.024 295.448 283.855 296.385C283.687 297.321 283.883 298.287 284.404 299.083C284.786 299.73 285.295 300.293 285.9 300.738C286.314 301.069 286.81 301.282 287.335 301.352C287.86 301.423 288.395 301.349 288.882 301.138C289.368 300.927 289.788 300.588 290.096 300.156C290.404 299.724 290.588 299.217 290.629 298.689C290.647 297.782 290.573 296.876 290.407 295.985L290.22 295.977Z" fill="#C6B4E4" fill-opacity="0.5"/>
<path d="M825.601 176.358C825.211 177.034 824.832 177.719 824.431 178.387C823.19 180.467 821.296 181.825 819.272 183.082C817.573 184.078 815.966 185.218 814.467 186.489C812.558 188.175 812.038 190.476 812.367 193.001C813.257 199.853 815.918 205.865 820.993 210.793C822.137 211.905 823.139 213.155 824.193 214.356C824.951 215.214 825.419 215.289 826.472 214.816C826.914 214.595 827.396 214.462 827.893 214.425C828.316 214.43 828.728 214.308 829.076 214.076C829.423 213.844 829.691 213.513 829.843 213.125C830.494 211.783 831.048 210.381 831.766 209.079C833.088 206.699 834.494 204.36 835.878 202.015C836.912 200.389 837.606 198.568 837.918 196.659C838.174 195.106 838.048 193.508 837.549 191.999C835.662 186.716 833.223 181.634 830.27 176.838C829.806 176.164 829.232 175.572 828.57 175.088C827.715 174.417 827.062 174.543 826.389 175.351C826.145 175.697 825.897 176.048 825.653 176.394L825.601 176.358Z" fill="#C6B4E4" fill-opacity="0.5"/>
<path d="M817.343 208.634C811.731 204.567 805.665 204.122 799.31 206.046C796.809 206.784 794.438 207.885 792.275 209.316C789.675 211.059 789.553 212.561 791.662 214.914C794.158 217.701 796.541 220.587 799.004 223.41C799.65 224.155 800.39 224.829 801.076 225.542C801.73 226.197 802.519 226.701 803.386 227.019C804.254 227.337 805.178 227.46 806.091 227.379C809.531 227.226 812.814 226.01 815.485 223.903C816.931 222.753 818.313 221.528 819.627 220.231C820.664 219.264 821.73 218.479 823.318 218.689C823.469 218.687 823.618 218.656 823.755 218.596C823.893 218.536 824.016 218.449 824.118 218.34C824.22 218.231 824.298 218.103 824.348 217.962C824.398 217.822 824.419 217.672 824.409 217.522C824.388 216.805 824.195 216.101 823.844 215.467C822.152 212.789 819.941 210.465 817.343 208.634Z" fill="#C6B4E4" fill-opacity="0.5"/>
<path d="M814.604 228.598C812.321 231.838 810.847 234.901 811.076 238.528C811.18 239.667 811.409 240.795 811.762 241.89C812.335 243.822 813.033 245.725 813.63 247.649C813.811 248.299 813.923 248.964 813.966 249.635C814.059 250.55 814.469 251.162 815.453 251.218C816.341 251.27 817.229 251.172 818.079 250.929C822.415 249.493 826.517 247.688 829.658 244.204C831.941 241.668 833.467 238.888 833.523 235.36C833.57 232.166 833.501 229.001 832.532 225.906C832.222 225.074 831.853 224.264 831.43 223.481C831.339 223.285 831.189 223.121 831.002 223.012C830.814 222.903 830.598 222.854 830.384 222.871C829.685 222.857 828.988 222.793 828.296 222.682C827.832 222.604 827.389 222.428 826.998 222.165C826.606 221.902 826.275 221.559 826.028 221.159C825.602 220.593 825.071 220.112 824.465 219.744C824.251 219.592 823.666 219.732 823.453 219.948C821.201 221.986 818.965 224.037 816.791 226.148C816.02 226.926 815.29 227.744 814.604 228.598Z" fill="#C6B4E4" fill-opacity="0.5"/>
<path d="M833.137 218.313C833.581 219.789 832.657 220.718 831.948 221.798C832.259 222.098 832.589 222.379 832.935 222.638C834.09 223.489 835.007 224.622 835.594 225.922C836.566 227.78 837.581 229.616 838.512 231.495C839.158 232.768 840.059 233.901 841.159 234.822C842.258 235.743 843.532 236.433 844.902 236.849C846.64 237.424 848.407 237.901 850.195 238.279C851.864 238.657 853.564 238.904 855.228 239.278C857.471 239.789 857.941 239.492 858.387 237.259C858.738 235.161 858.635 233.003 858.083 230.93C857.166 226.962 855.59 223.312 852.661 220.313C851.335 218.895 849.614 217.901 847.727 217.463C843.19 216.333 838.448 216.513 834.065 217.982C833.764 218.076 833.477 218.188 833.137 218.313Z" fill="#C6B4E4" fill-opacity="0.5"/>
<path d="M835.807 204.357C834.036 207.038 832.526 209.884 831.299 212.857C831.201 213.116 831.116 213.379 831.046 213.647C830.64 215.11 830.848 215.75 832.167 216.552C832.355 216.641 832.56 216.687 832.767 216.686C832.974 216.685 833.178 216.636 833.361 216.544C835.489 215.199 837.871 214.985 840.328 214.873C843.016 214.792 845.645 214.144 848.04 212.973C850.435 211.802 852.541 210.134 854.221 208.08C856.478 205.291 858.182 202.096 859.245 198.662C859.736 197.19 859.826 195.733 858.704 194.382C858.467 194.031 858.153 193.737 857.787 193.523C857.42 193.308 857.01 193.18 856.59 193.146C855.684 193.108 854.779 193.155 853.886 193.287C848.67 194.137 843.905 195.984 840.066 199.682C838.538 201.11 837.21 202.798 835.807 204.357Z" fill="#C6B4E4" fill-opacity="0.5"/>
<path d="M830.509 216.144C830.37 216.046 830.231 215.948 830.066 215.899C828.446 215.106 826.708 215.417 826.018 216.63C825.677 217.359 825.632 218.197 825.894 218.971C826.155 219.744 826.703 220.395 827.425 220.79C827.981 221.127 828.597 221.35 829.236 221.446C829.685 221.533 830.146 221.497 830.57 221.342C830.994 221.187 831.366 220.919 831.644 220.568C831.922 220.216 832.097 219.794 832.149 219.346C832.202 218.898 832.13 218.443 831.941 218.028C831.579 217.336 831.147 216.682 830.653 216.075L830.509 216.144Z" fill="#C6B4E4" fill-opacity="0.5"/>
<path d="M151.657 200.66C151.215 202.045 150.799 203.442 150.331 204.817C148.891 209.095 145.861 212.251 142.535 215.266C139.715 217.687 137.137 220.344 134.83 223.206C131.921 226.978 131.973 231.42 133.765 235.991C138.619 248.398 146.507 258.648 158.551 266.073C161.265 267.748 163.77 269.728 166.353 271.6C168.208 272.934 169.145 272.915 170.959 271.684C171.709 271.124 172.579 270.714 173.521 270.479C174.338 270.344 175.076 269.98 175.64 269.432C176.204 268.885 176.568 268.18 176.684 267.408C177.324 264.7 177.751 261.914 178.539 259.256C179.998 254.396 181.637 249.584 183.231 244.768C184.481 241.404 184.984 237.793 184.711 234.147C184.494 231.181 183.517 228.259 181.863 225.63C175.805 216.47 168.772 207.87 160.881 199.973C159.679 198.881 158.299 197.977 156.802 197.302C154.845 196.347 153.644 196.8 152.716 198.526C152.404 199.25 152.087 199.986 151.775 200.71L151.657 200.66Z" fill="#C6B4E4" fill-opacity="0.5"/>
<path d="M150.52 263.297C137.834 257.651 125.934 258.873 114.56 264.587C110.075 266.799 106.009 269.643 102.492 273.027C98.2776 277.137 98.7313 279.964 103.875 283.614C109.966 287.94 115.884 292.487 121.926 296.891C123.514 298.053 125.249 299.054 126.9 300.145C128.459 301.138 130.212 301.806 132.031 302.103C133.849 302.399 135.688 302.315 137.412 301.857C143.973 300.411 149.748 297.049 153.933 292.238C156.194 289.618 158.299 286.879 160.237 284.032C161.795 281.888 163.49 280.071 166.648 279.925C166.939 279.871 167.211 279.763 167.449 279.605C167.686 279.448 167.884 279.245 168.031 279.009C168.177 278.772 168.269 278.507 168.302 278.23C168.334 277.952 168.306 277.667 168.218 277.392C167.85 276.071 167.153 274.83 166.187 273.773C161.697 269.378 156.369 265.816 150.52 263.297Z" fill="#C6B4E4" fill-opacity="0.5"/>
<path d="M154.378 301.253C151.459 308.032 150.021 314.21 152.125 320.859C152.846 322.937 153.806 324.951 154.987 326.862C156.977 330.252 159.196 333.544 161.228 336.91C161.874 338.055 162.396 339.251 162.786 340.48C163.384 342.145 164.456 343.141 166.379 342.914C168.116 342.71 169.783 342.229 171.31 341.491C179.014 337.364 186.096 332.631 190.558 325.109C193.797 319.636 195.465 313.965 193.958 307.405C192.585 301.466 191.002 295.619 187.716 290.207C186.736 288.77 185.654 287.392 184.479 286.083C184.214 285.751 183.85 285.497 183.438 285.358C183.027 285.218 182.588 285.2 182.183 285.305C180.829 285.514 179.454 285.632 178.069 285.659C177.14 285.672 176.205 285.495 175.329 285.139C174.454 284.784 173.658 284.259 172.998 283.601C171.918 282.696 170.674 281.983 169.336 281.504C168.853 281.296 167.79 281.753 167.479 282.224C164.069 286.765 160.698 291.323 157.473 295.972C156.343 297.675 155.31 299.438 154.378 301.253Z" fill="#C6B4E4" fill-opacity="0.5"/>
<path d="M185.41 275.926C186.942 278.513 185.586 280.547 184.713 282.789C185.451 283.241 186.216 283.65 187.002 284.014C189.619 285.203 191.905 286.993 193.633 289.206C196.36 292.323 199.158 295.385 201.815 298.556C203.644 300.699 205.9 302.494 208.442 303.831C210.984 305.168 213.758 306.017 216.589 306.326C220.204 306.805 223.83 307.094 227.451 307.19C230.843 307.327 234.235 307.212 237.613 307.344C242.174 307.534 242.943 306.825 242.78 302.532C242.496 298.523 241.308 294.558 239.295 290.898C235.707 283.85 230.997 277.614 223.975 273.042C220.768 270.859 216.995 269.597 213.154 269.423C203.888 268.86 194.827 270.795 187.047 274.998C186.511 275.274 186.008 275.578 185.41 275.926Z" fill="#C6B4E4" fill-opacity="0.5"/>
<path d="M184.165 249.138C181.978 254.707 180.372 260.495 179.368 266.423C179.296 266.935 179.254 267.453 179.242 267.973C179.128 270.823 179.824 271.939 182.733 272.981C183.137 273.083 183.555 273.099 183.953 273.027C184.352 272.955 184.721 272.796 185.033 272.564C188.521 269.351 193.015 268.148 197.701 267.112C202.848 266.053 207.62 263.964 211.702 260.984C215.783 258.003 219.082 254.199 221.379 249.823C224.454 243.888 226.276 237.39 226.753 230.661C227.025 227.767 226.53 225.034 223.748 222.907C223.13 222.336 222.39 221.897 221.585 221.624C220.78 221.35 219.931 221.25 219.104 221.33C217.341 221.564 215.617 221.958 213.956 222.505C204.287 225.842 195.945 230.876 190.236 239.029C187.945 242.194 186.156 245.773 184.165 249.138Z" fill="#C6B4E4" fill-opacity="0.5"/>
<path d="M179.354 272.781C179.041 272.646 178.727 272.511 178.386 272.477C174.9 271.552 171.691 272.717 170.916 275.199C170.592 276.667 170.89 278.236 171.749 279.582C172.608 280.928 173.963 281.95 175.536 282.437C176.761 282.875 178.051 283.081 179.329 283.044C180.233 283.053 181.106 282.83 181.853 282.4C182.6 281.97 183.193 281.348 183.569 280.602C183.944 279.855 184.087 279.013 183.983 278.165C183.879 277.318 183.532 276.497 182.978 275.791C181.963 274.631 180.831 273.564 179.6 272.605L179.354 272.781Z" fill="#C6B4E4" fill-opacity="0.5"/>
<path d="M807.812 304.268C805.46 292.528 797.689 284.988 786.383 280.204C781.959 278.295 777.232 277.011 772.356 276.394C766.465 275.682 764.309 277.5 764.1 282.986C763.851 289.482 763.315 295.978 762.971 302.482C762.877 304.195 763.004 305.923 763.005 307.639C763.04 309.242 763.459 310.805 764.235 312.214C765.01 313.624 766.121 314.844 767.486 315.787C772.43 319.533 778.564 321.717 785.036 322.035C788.551 322.195 792.078 322.184 795.605 322.002C798.315 321.932 800.825 322.131 802.735 324.227C802.945 324.398 803.191 324.528 803.46 324.607C803.729 324.687 804.014 324.715 804.298 324.69C804.583 324.665 804.861 324.587 805.116 324.462C805.372 324.336 805.599 324.165 805.784 323.958C806.704 323 807.37 321.86 807.725 320.632C808.938 315.2 808.968 309.635 807.812 304.268Z" fill="#C6B4E4" fill-opacity="0.5"/>
<path d="M276.825 213.359C277.666 230.374 272.29 243.411 262.853 253.834C259.169 257.963 255.038 261.33 250.591 263.827C245.209 266.797 242.696 265.011 241.068 257.502C239.137 248.61 236.935 239.815 234.914 230.943C234.377 228.608 234.047 226.178 233.6 223.805C233.214 221.58 233.203 219.279 233.568 217.07C233.933 214.861 234.664 212.8 235.709 211.037C239.403 204.194 244.631 199.108 250.665 196.487C253.945 195.08 257.281 193.906 260.661 192.97C263.241 192.152 265.561 191.031 266.819 187.492C266.973 187.184 267.172 186.922 267.406 186.721C267.639 186.52 267.901 186.385 268.176 186.324C268.452 186.263 268.735 186.276 269.009 186.364C269.283 186.452 269.542 186.612 269.771 186.835C270.891 187.848 271.817 189.2 272.474 190.776C275.037 197.873 276.517 205.553 276.825 213.359Z" fill="#C6B4E4" fill-opacity="0.5"/>
<path d="M473.967 103.7C475.458 92.7523 473.184 84.0838 468.449 76.9147C466.604 74.0773 464.46 71.7108 462.085 69.8916C459.207 67.7241 457.674 68.7602 456.303 73.5331C454.677 79.1856 452.903 84.7624 451.227 90.3972C450.784 91.8797 450.451 93.4334 450.057 94.9449C449.705 96.3642 449.562 97.8496 449.637 99.2929C449.712 100.736 450.005 102.101 450.493 103.288C452.182 107.879 454.846 111.406 458.114 113.378C459.892 114.439 461.716 115.352 463.578 116.114C464.994 116.762 466.244 117.594 466.747 119.938C466.816 120.144 466.913 120.322 467.034 120.463C467.154 120.603 467.295 120.703 467.447 120.755C467.6 120.807 467.761 120.812 467.922 120.768C468.083 120.724 468.24 120.633 468.383 120.499C469.079 119.897 469.685 119.067 470.152 118.08C472.03 113.616 473.327 108.726 473.967 103.7Z" fill="#C6B4E4" fill-opacity="0.5"/>
<path d="M166.896 34.8212C164.709 40.391 163.102 46.1783 162.098 52.1063C162.027 52.6187 161.985 53.1361 161.972 53.6564C161.859 56.5068 162.554 57.6226 165.464 58.6643C165.868 58.7671 166.285 58.7829 166.684 58.7106C167.082 58.6382 167.452 58.4797 167.763 58.2473C171.251 55.0347 175.746 53.8319 180.432 52.796C185.578 51.7366 190.35 49.6477 194.432 46.6673C198.514 43.6869 201.812 39.883 204.11 35.507C207.184 29.5719 209.007 23.0731 209.484 16.345C209.755 13.4502 209.261 10.7181 206.478 8.59104C205.861 8.02006 205.121 7.58088 204.316 7.30736C203.511 7.03384 202.662 6.93329 201.835 7.01345C200.071 7.24807 198.348 7.64142 196.687 8.18817C187.017 11.5253 178.675 16.5599 172.967 24.713C170.675 27.8779 168.887 31.4564 166.896 34.8212Z" fill="#C6B4E4" fill-opacity="0.5"/>
<path d="M579.943 196.283C585.369 200.142 590.365 204.59 594.865 209.569C595.239 210.01 595.588 210.474 595.91 210.961C597.718 213.598 597.713 215.118 595.534 218.025C595.206 218.389 594.814 218.679 594.387 218.873C593.96 219.067 593.51 219.159 593.071 219.143C587.799 218.384 582.755 220.2 577.626 222.301C572.04 224.683 566.202 225.838 560.496 225.691C554.79 225.544 549.347 224.097 544.527 221.447C538.03 217.825 532.401 212.842 527.932 206.754C525.945 204.179 524.793 201.254 526.204 197.397C526.458 196.447 526.908 195.542 527.52 194.752C528.132 193.961 528.89 193.306 529.734 192.838C531.571 191.9 533.465 191.138 535.39 190.565C546.687 187.371 557.719 186.667 568.074 190.664C572.166 192.166 576.021 194.393 579.943 196.283Z" fill="#C6B4E4" fill-opacity="0.5"/>
<path d="M431.701 256.785C434.024 259.218 436.09 261.888 437.873 264.759C438.019 265.01 438.151 265.27 438.268 265.538C438.933 266.998 438.808 267.726 437.516 268.888C437.327 269.027 437.113 269.124 436.89 269.171C436.667 269.219 436.441 269.215 436.23 269.16C433.732 268.231 431.137 268.562 428.477 269.02C425.574 269.564 422.646 269.493 419.888 268.811C417.13 268.128 414.604 266.851 412.478 265.063C409.616 262.629 407.286 259.635 405.608 256.235C404.851 254.787 404.527 253.26 405.523 251.561C405.723 251.132 406.015 250.746 406.376 250.432C406.737 250.119 407.157 249.886 407.605 249.751C408.573 249.498 409.553 249.336 410.534 249.267C416.276 248.945 421.688 249.79 426.393 252.817C428.258 253.976 429.95 255.458 431.701 256.785Z" fill="#C6B4E4" fill-opacity="0.5"/>
<path d="M439.238 244.831C439.138 247.632 438.748 250.419 438.073 253.153C438.008 253.387 437.929 253.617 437.838 253.843C437.354 255.089 436.847 255.439 435.402 255.343C435.209 255.312 435.026 255.241 434.869 255.135C434.711 255.03 434.581 254.893 434.491 254.735C433.591 252.704 431.883 251.348 430.062 250.028C428.047 248.613 426.386 246.825 425.188 244.782C423.989 242.74 423.281 240.49 423.111 238.181C422.897 235.057 423.327 231.924 424.378 228.944C424.802 227.649 425.524 226.568 427.118 226.173C427.49 226.043 427.89 225.992 428.287 226.025C428.684 226.058 429.068 226.173 429.409 226.362C430.123 226.791 430.791 227.282 431.403 227.827C434.937 231.065 437.583 234.786 438.515 239.354C438.909 241.142 439.01 243.013 439.238 244.831Z" fill="#C6B4E4" fill-opacity="0.5"/>
<path d="M295.48 243.263C292.455 246.26 289.132 248.945 285.555 251.282C285.241 251.474 284.917 251.649 284.582 251.805C282.762 252.691 281.849 252.562 280.386 250.985C280.21 250.754 280.086 250.49 280.025 250.213C279.964 249.935 279.967 249.652 280.034 249.386C281.176 246.223 280.741 242.985 280.146 239.672C279.441 236.056 279.506 232.387 280.336 228.908C281.167 225.43 282.745 222.221 284.964 219.493C287.986 215.82 291.713 212.793 295.953 210.567C297.759 209.567 299.667 209.106 301.801 210.291C302.339 210.526 302.824 210.877 303.22 211.318C303.615 211.758 303.91 212.276 304.082 212.832C304.407 214.034 304.618 215.256 304.712 216.482C305.162 223.661 304.15 230.469 300.401 236.47C298.966 238.849 297.126 241.021 295.48 243.263Z" fill="#C6B4E4" fill-opacity="0.5"/>
<path d="M309.946 239.208C310.575 238.216 311.222 237.234 311.831 236.232C313.735 233.124 314.203 229.646 314.445 226.065C314.568 223.099 314.949 220.156 315.584 217.266C316.482 213.54 319.195 211.244 322.814 209.928C332.631 206.351 342.587 205.729 352.811 209.09C355.116 209.846 357.506 210.317 359.867 210.891C361.557 211.309 361.991 211.883 362.109 213.62C362.127 214.365 362.294 215.103 362.599 215.793C362.906 216.356 363.037 216.991 362.974 217.617C362.911 218.244 362.658 218.832 362.246 219.306C360.912 221.11 359.429 222.826 358.195 224.693C355.948 228.118 353.816 231.625 351.661 235.107C350.219 237.622 348.274 239.817 345.937 241.562C344.039 242.986 341.806 243.928 339.429 244.31C331.003 245.462 322.452 245.734 313.92 245.12C312.686 244.969 311.483 244.611 310.362 244.064C308.853 243.386 308.556 242.426 309.158 240.963C309.448 240.396 309.743 239.819 310.033 239.252L309.946 239.208Z" fill="#C6B4E4" fill-opacity="0.5"/>
<path d="M347.306 205.705C337.853 201.026 332.931 193.222 330.977 183.382C330.182 179.523 329.968 175.585 330.343 171.696C330.824 167.006 332.751 165.798 337.407 166.982C342.923 168.382 348.49 169.562 354.03 170.893C355.489 171.24 356.92 171.76 358.365 172.182C359.708 172.601 360.947 173.306 361.991 174.245C363.036 175.185 363.86 176.335 364.403 177.613C366.65 182.321 367.363 187.558 366.443 192.598C365.933 195.331 365.277 198.033 364.476 200.691C363.92 202.752 363.627 204.725 365.041 206.702C365.147 206.905 365.211 207.126 365.229 207.352C365.246 207.577 365.218 207.803 365.144 208.015C365.071 208.227 364.955 208.421 364.802 208.586C364.649 208.751 364.463 208.883 364.256 208.974C363.28 209.445 362.198 209.675 361.099 209.647C356.303 209.247 351.612 207.906 347.306 205.705Z" fill="#C6B4E4" fill-opacity="0.5"/>
<path d="M372.113 188.146C374.826 182.837 377.88 178.735 382.905 176.519C384.506 175.864 386.181 175.387 387.899 175.096C390.898 174.519 393.945 174.13 396.949 173.59C397.949 173.379 398.922 173.067 399.851 172.657C401.143 172.145 402.256 172.268 403.034 173.545C403.736 174.698 404.238 175.953 404.518 177.259C405.686 184.058 406.192 190.801 403.763 197.427C401.992 202.244 399.354 206.22 394.667 208.749C390.42 211.034 386.128 213.144 381.29 214.001C379.954 214.164 378.605 214.235 377.254 214.213C376.926 214.227 376.6 214.141 376.32 213.966C376.04 213.792 375.82 213.537 375.691 213.238C375.173 212.314 374.59 211.424 373.948 210.576C373.513 210.01 372.961 209.54 372.33 209.199C371.698 208.858 371.002 208.654 370.29 208.601C369.228 208.426 368.205 208.05 367.278 207.496C366.923 207.314 366.693 206.435 366.83 206.001C367.956 201.569 369.11 197.152 370.389 192.776C370.882 191.203 371.458 189.657 372.113 188.146Z" fill="#C6B4E4" fill-opacity="0.5"/>
<path d="M371.549 220.095C373.844 219.661 374.43 217.78 375.371 216.08C375.996 216.287 376.607 216.533 377.202 216.816C379.166 217.769 381.337 218.207 383.498 218.088C386.682 218.097 389.866 218.177 393.049 218.115C395.216 218.094 397.376 218.511 399.395 219.341C401.413 220.171 403.246 221.396 404.78 222.938C406.79 224.863 408.69 226.895 410.471 229.025C412.168 230.994 413.712 233.097 415.399 235.061C417.684 237.706 417.621 238.542 414.946 240.692C412.384 242.621 409.42 243.983 406.248 244.689C400.276 246.221 394.26 246.653 388.153 244.821C385.306 244.034 382.747 242.423 380.815 240.203C376.065 234.92 372.925 228.452 371.767 221.566C371.679 221.099 371.624 220.637 371.549 220.095Z" fill="#C6B4E4" fill-opacity="0.5"/>
<path d="M354.752 233.378C357.082 229.143 359.82 225.145 362.929 221.435C363.205 221.123 363.498 220.827 363.807 220.547C365.478 218.985 366.484 218.82 368.499 220.025C368.753 220.214 368.961 220.457 369.107 220.735C369.253 221.013 369.333 221.319 369.341 221.628C369.056 225.41 370.467 228.746 372.069 232.11C373.877 235.763 374.883 239.73 375.022 243.748C375.16 247.766 374.428 251.745 372.872 255.42C370.744 260.38 367.678 264.882 363.834 268.694C362.211 270.374 360.322 271.507 357.711 270.947C357.072 270.874 356.454 270.659 355.906 270.317C355.357 269.976 354.892 269.518 354.547 268.978C353.85 267.793 353.268 266.55 352.809 265.263C350.228 257.694 349.305 250.035 351.523 242.328C352.348 239.29 353.663 236.339 354.752 233.378Z" fill="#C6B4E4" fill-opacity="0.5"/>
<path d="M366.77 218.092C366.54 217.974 366.309 217.856 366.126 217.668C363.908 216.054 363.086 213.512 364.219 211.746C364.953 210.781 366.044 210.139 367.268 209.951C368.491 209.762 369.754 210.043 370.797 210.734C371.645 211.243 372.384 211.911 372.969 212.7C373.405 213.24 373.685 213.881 373.78 214.557C373.875 215.232 373.781 215.915 373.508 216.532C373.236 217.148 372.794 217.676 372.232 218.058C371.669 218.439 371.007 218.66 370.316 218.696C369.132 218.693 367.947 218.57 366.781 218.332L366.77 218.092Z" fill="#C6B4E4" fill-opacity="0.5"/>
<path d="M133.697 0.0792016C133.328 6.88814 134.053 12.7038 137.998 17.7967C139.287 19.369 140.761 20.8084 142.395 22.0888C145.202 24.3934 148.176 26.5396 151.012 28.8099C151.938 29.5961 152.772 30.4669 153.501 31.4082C154.551 32.6609 155.799 33.1829 157.394 32.3723C158.835 31.6408 160.126 30.6917 161.215 29.5652C166.578 23.5287 171.209 17.1657 172.677 9.22031C173.739 3.44154 173.377 -2.0077 169.977 -7.21464C166.891 -11.9262 163.654 -16.4905 159.078 -20.1345C157.769 -21.0682 156.392 -21.918 154.955 -22.6777C154.619 -22.8813 154.223 -22.985 153.822 -22.9746C153.42 -22.9641 153.034 -22.84 152.716 -22.6194C151.609 -22.0066 150.455 -21.4656 149.262 -21.0004C148.461 -20.6926 147.594 -20.548 146.721 -20.5766C145.848 -20.6053 144.991 -20.8064 144.209 -21.1662C142.983 -21.6069 141.678 -21.8278 140.365 -21.8167C139.88 -21.8429 139.104 -21.1075 138.984 -20.5997C137.476 -15.5746 136.008 -10.5474 134.695 -5.48776C134.258 -3.6497 133.925 -1.79164 133.697 0.0792016Z" fill="#C6B4E4" fill-opacity="0.5"/>
<path d="M-4.92131 93.9774C-3.57797 93.3635 -2.24327 92.7253 -0.891283 92.1358C3.30459 90.29 7.6957 90.2118 12.1738 90.418C15.8682 90.6812 19.5819 90.6333 23.2747 90.2747C28.053 89.7164 31.3915 86.7905 33.6841 82.6458C39.911 71.4023 42.5047 59.5841 40.2169 46.8943C39.7033 44.0335 39.5579 41.1106 39.2801 38.2072C39.0721 36.129 38.4414 35.5304 36.3125 35.1483C35.3935 35.0238 34.51 34.7227 33.7118 34.262C33.0717 33.8166 32.3089 33.5723 31.522 33.5608C30.7351 33.5493 29.9604 33.7711 29.2979 34.1976C26.8202 35.5431 24.4241 37.0789 21.8866 38.2949C17.2356 40.5078 12.5036 42.5712 7.79704 44.6668C4.41953 46.0418 1.34642 48.0646 -1.24269 50.617C-3.35219 52.6887 -4.9282 55.228 -5.83631 58.0184C-8.80622 67.9337 -10.7088 78.1201 -11.5123 88.4077C-11.5508 89.9034 -11.329 91.3918 -10.8565 92.808C-10.2944 94.7058 -9.15933 95.1939 -7.23811 94.6764C-6.48293 94.4084 -5.71538 94.1359 -4.9602 93.8679L-4.92131 93.9774Z" fill="#C6B4E4" fill-opacity="0.5"/>
<path d="M43.3905 53.9358C47.4512 65.8867 56.2106 72.8526 68.034 76.5514C72.6659 78.0367 77.5016 78.8375 82.3852 78.9281C88.2799 79.0015 90.1282 76.865 89.5156 71.1334C88.7925 64.3444 88.3511 57.5239 87.719 50.7163C87.5565 48.9235 87.1744 47.1401 86.9167 45.3536C86.6443 43.6899 85.9987 42.111 85.027 40.732C84.0552 39.353 82.7817 38.2086 81.2993 37.3821C75.8833 34.0435 69.5297 32.4655 63.1227 32.8679C59.645 33.0988 56.1802 33.5096 52.7423 34.0988C50.0892 34.4785 47.5935 34.5556 45.4046 32.591C45.1725 32.4362 44.9108 32.3293 44.6349 32.2769C44.359 32.2244 44.0746 32.2274 43.7987 32.2857C43.5229 32.3439 43.2611 32.4563 43.029 32.6161C42.797 32.7758 42.5994 32.9797 42.448 33.2156C41.6869 34.3165 41.2028 35.579 41.0364 36.8968C40.654 42.6869 41.4545 48.4815 43.3905 53.9358Z" fill="#C6B4E4" fill-opacity="0.5"/>
<path d="M69.6737 26.7115C76.7427 24.2024 82.3808 21.1183 86.0448 15.4176C87.1487 13.5937 88.0461 11.657 88.7205 9.64278C89.9853 6.13706 91.0249 2.54676 92.2439 -0.970119C92.6878 -2.13687 93.2529 -3.25621 93.93 -4.31009C94.8007 -5.78429 94.852 -7.13213 93.4136 -8.23906C92.1154 -9.23859 90.653 -10.0125 89.0883 -10.5282C80.8843 -12.8662 72.6295 -14.4048 63.9812 -12.4179C57.6935 -10.9674 52.2891 -8.36374 48.2994 -3.10949C44.6926 1.65248 41.2942 6.49123 39.3469 12.1583C38.9002 13.7334 38.5655 15.3362 38.3452 16.9551C38.2673 17.3442 38.3141 17.7464 38.479 18.1056C38.644 18.4647 38.9189 18.763 39.2655 18.9587C40.315 19.7061 41.3093 20.5257 42.2411 21.4116C42.8624 22.009 43.3431 22.7342 43.6496 23.5368C43.9561 24.3393 44.0812 25.2 44.0161 26.059C44.0391 27.3532 44.3165 28.6281 44.8328 29.8128C44.9927 30.2633 46.0393 30.6594 46.6019 30.5556C52.2943 29.8236 57.9738 29.0551 63.6261 28.1316C65.664 27.7597 67.6825 27.2857 69.6737 26.7115Z" fill="#C6B4E4" fill-opacity="0.5"/>
<path d="M30.0167 22.9552C30.9738 20.2715 33.4104 19.8315 35.6872 18.9412C35.5449 18.1659 35.3525 17.4009 35.1112 16.6508C34.2917 14.1699 34.1466 11.5135 34.6903 8.94583C35.2623 5.13771 35.747 1.31945 36.4062 -2.4785C36.8295 -5.06637 36.7085 -7.70695 36.0509 -10.2353C35.3933 -12.7637 34.2132 -15.1255 32.5842 -17.1734C30.5695 -19.843 28.402 -22.3962 26.0921 -24.8207C23.9648 -27.1224 21.6449 -29.2598 19.5219 -31.5493C16.6657 -34.6477 15.62 -34.6878 12.4677 -31.7869C9.61027 -28.9914 7.38065 -25.6349 5.92645 -21.9396C2.93532 -15.0111 1.29921 -7.87814 2.44797 -0.32181C2.90081 3.19114 4.42582 6.47406 6.82096 9.09202C12.4907 15.5031 19.923 20.1535 28.2349 22.4911C28.7973 22.6616 29.359 22.7911 30.0167 22.9552Z" fill="#C6B4E4" fill-opacity="0.5"/>
<path d="M10.5024 41.2094C16.1714 39.0098 21.6233 36.2898 26.7859 33.0856C27.2219 32.7984 27.6425 32.489 28.046 32.1585C30.2851 30.3768 30.6747 29.1967 29.5514 26.6209C29.3635 26.2905 29.1008 26.0079 28.7835 25.7949C28.4662 25.582 28.1028 25.4443 27.7214 25.3926C22.9864 25.209 19.1152 23.0603 15.2448 20.6782C11.0535 18.011 6.32695 16.2585 1.37757 15.5365C-3.5718 14.8145 -8.63121 15.1395 -13.4661 16.49C-19.9967 18.3484 -26.1312 21.3905 -31.5542 25.46C-33.9312 27.1673 -35.6806 29.2686 -35.4649 32.4682C-35.492 33.2428 -35.3386 34.0114 -35.0165 34.7146C-34.6944 35.4178 -34.2122 36.0369 -33.607 36.5241C-32.2685 37.5215 -30.8354 38.3898 -29.3271 39.1172C-20.4298 43.2515 -11.1168 45.4152 -1.16873 43.8305C2.74262 43.2647 6.63716 42.1016 10.5024 41.2094Z" fill="#C6B4E4" fill-opacity="0.5"/>
<path d="M31.6173 28.9543C31.721 29.2464 31.8247 29.5386 32.0232 29.7835C33.6153 32.6589 36.6123 33.994 39.0062 32.8838C40.3349 32.1392 41.3299 30.9238 41.7869 29.4871C42.2438 28.0503 42.128 26.5013 41.4633 25.1579C40.9891 24.0738 40.2966 23.098 39.4275 22.2891C38.8394 21.6934 38.0962 21.2691 37.2777 21.062C36.4593 20.8548 35.5967 20.8726 34.783 21.1135C33.9693 21.3544 33.2352 21.8092 32.6599 22.4289C32.0846 23.0487 31.6899 23.8099 31.5183 24.6304C31.3059 26.0476 31.2402 27.481 31.3222 28.9083L31.6173 28.9543Z" fill="#C6B4E4" fill-opacity="0.5"/>
<path d="M411.089 359.191C412.742 358.791 414.391 358.363 416.048 357.992C421.195 356.824 426.174 357.663 431.188 358.837C435.304 359.908 439.51 360.638 443.761 361.017C449.283 361.404 453.7 358.854 457.203 354.728C466.716 343.538 472.251 330.942 472.462 316.348C472.512 313.059 472.992 309.778 473.318 306.491C473.541 304.136 472.96 303.337 470.639 302.463C469.628 302.131 468.696 301.61 467.896 300.929C467.271 300.299 466.463 299.867 465.576 299.688C464.69 299.509 463.766 299.593 462.923 299.927C459.827 300.901 456.782 302.104 453.647 302.921C447.905 304.401 442.104 305.698 436.324 307.037C432.205 307.854 428.288 309.455 424.8 311.748C421.96 313.607 419.62 316.098 417.979 319.01C412.439 329.41 408.045 340.337 404.87 351.607C404.497 353.263 404.419 354.964 404.641 356.639C404.858 358.868 406.033 359.65 408.318 359.48C409.23 359.341 410.157 359.2 411.069 359.061L411.089 359.191Z" fill="#C6B4E4" fill-opacity="0.5"/>
<path d="M474.497 324.845C476.452 338.991 484.813 348.584 497.356 355.19C502.262 357.818 507.549 359.728 513.047 360.858C519.691 362.183 522.25 360.196 522.821 353.693C523.5 345.991 524.504 338.314 525.29 330.61C525.501 328.582 525.462 326.518 525.565 324.477C525.624 322.57 525.242 320.678 524.448 318.939C523.654 317.201 522.468 315.66 520.975 314.428C515.591 309.574 508.761 306.48 501.433 305.576C497.453 305.1 493.448 304.826 489.434 304.757C486.353 304.62 483.516 304.179 481.476 301.533C481.248 301.312 480.976 301.138 480.676 301.021C480.376 300.905 480.054 300.848 479.729 300.855C479.405 300.862 479.084 300.931 478.787 301.06C478.489 301.189 478.221 301.374 477.998 301.604C476.896 302.668 476.07 303.97 475.592 305.4C473.884 311.759 473.512 318.371 474.497 324.845Z" fill="#C6B4E4" fill-opacity="0.5"/>
<path d="M510.191 300.111C518.731 298.811 525.781 296.57 531.176 291.003C532.825 289.207 534.266 287.243 535.472 285.145C537.673 281.513 539.639 277.74 541.791 274.086C542.55 272.882 543.435 271.756 544.432 270.727C545.741 269.271 546.096 267.783 544.715 266.249C543.468 264.864 541.986 263.695 540.332 262.791C531.578 258.462 522.591 255.011 512.382 255.397C504.959 255.684 498.279 257.44 492.613 262.442C487.489 266.977 482.583 271.642 479.134 277.533C478.283 279.191 477.551 280.902 476.946 282.656C476.772 283.073 476.736 283.53 476.843 283.964C476.951 284.398 477.196 284.788 477.544 285.078C478.565 286.131 479.508 287.252 480.365 288.433C480.936 289.229 481.319 290.137 481.488 291.094C481.658 292.051 481.61 293.034 481.347 293.976C481.088 295.42 481.12 296.896 481.442 298.322C481.524 298.857 482.619 299.518 483.277 299.521C489.87 299.907 496.456 300.25 503.046 300.415C505.43 300.431 507.815 300.329 510.191 300.111Z" fill="#C6B4E4" fill-opacity="0.5"/>
<path d="M466.216 287.576C467.889 284.793 470.739 284.818 473.508 284.307C473.518 283.415 473.469 282.524 473.361 281.639C472.982 278.707 473.404 275.723 474.584 272.982C476.069 268.868 477.458 264.724 479.04 260.639C480.088 257.851 480.533 254.889 480.348 251.939C480.162 248.988 479.349 246.113 477.96 243.492C476.272 240.099 474.385 236.803 472.31 233.62C470.414 230.611 468.264 227.746 466.369 224.752C463.825 220.704 462.653 220.439 458.452 223.001C454.607 225.507 451.349 228.769 448.892 232.572C443.985 239.646 440.565 247.233 440.198 255.879C439.936 259.881 440.935 263.853 443.064 267.269C448.057 275.594 455.43 282.332 464.306 286.684C464.903 286.992 465.51 287.255 466.216 287.576Z" fill="#C6B4E4" fill-opacity="0.5"/>
<path d="M440.145 303.761C447.035 302.51 453.794 300.635 460.333 298.16C460.889 297.932 461.432 297.677 461.961 297.394C464.883 295.885 465.583 294.655 464.882 291.554C464.742 291.147 464.508 290.777 464.196 290.473C463.885 290.17 463.504 289.94 463.085 289.802C457.776 288.6 453.875 285.394 450.027 281.929C445.88 278.079 440.926 275.134 435.493 273.288C430.06 271.441 424.272 270.736 418.512 271.219C410.724 271.909 403.123 273.998 396.099 277.38C393.038 278.778 390.598 280.746 390.137 284.349C389.935 285.205 389.939 286.092 390.148 286.942C390.357 287.792 390.766 288.582 391.342 289.251C392.635 290.643 394.062 291.91 395.606 293.037C404.748 299.511 414.793 303.88 426.381 304.215C430.925 304.41 435.582 303.938 440.145 303.761Z" fill="#C6B4E4" fill-opacity="0.5"/>
<path d="M466.698 294.585C466.751 294.932 466.804 295.279 466.974 295.593C468.139 299.126 471.231 301.243 474.181 300.513C475.846 299.965 477.238 298.823 478.071 297.322C478.904 295.82 479.114 294.073 478.659 292.439C478.362 291.134 477.795 289.903 476.991 288.82C476.458 288.033 475.712 287.405 474.833 287.002C473.954 286.599 472.975 286.437 472.003 286.533C471.03 286.63 470.101 286.981 469.314 287.549C468.528 288.117 467.914 288.88 467.539 289.756C466.987 291.287 466.597 292.867 466.375 294.472L466.698 294.585Z" fill="#C6B4E4" fill-opacity="0.5"/>
<path d="M530.767 85.3297C529.066 86.1071 527.375 86.9154 525.663 87.662C520.349 89.9995 514.788 90.0986 509.117 89.8375C504.438 89.5041 499.735 89.5648 495.058 90.019C489.007 90.7261 484.779 94.4315 481.876 99.6805C473.99 113.92 470.705 128.887 473.602 144.957C474.253 148.58 474.437 152.282 474.789 155.959C475.052 158.591 475.851 159.349 478.547 159.833C479.711 159.991 480.83 160.372 481.841 160.955C482.651 161.52 483.617 161.829 484.614 161.843C485.61 161.858 486.592 161.577 487.431 161.037C490.568 159.333 493.603 157.388 496.816 155.848C502.707 153.045 508.699 150.432 514.66 147.778C518.937 146.037 522.829 143.475 526.108 140.243C528.78 137.619 530.776 134.403 531.926 130.87C535.687 118.312 538.096 105.412 539.114 92.3834C539.163 90.4892 538.882 88.6042 538.283 86.8106C537.572 84.4073 536.134 83.7891 533.701 84.4444C532.745 84.7839 531.773 85.1289 530.816 85.4684L530.767 85.3297Z" fill="#C6B4E4" fill-opacity="0.5"/>
<path d="M469.582 136.041C464.439 120.906 453.346 112.085 438.373 107.4C432.506 105.519 426.382 104.505 420.198 104.39C412.732 104.297 410.392 107.003 411.167 114.262C412.083 122.86 412.642 131.497 413.443 140.119C413.649 142.389 414.132 144.648 414.459 146.91C414.804 149.017 415.621 151.017 416.852 152.763C418.083 154.51 419.696 155.959 421.573 157.006C428.432 161.234 436.478 163.232 444.592 162.723C448.997 162.43 453.385 161.91 457.738 161.164C461.098 160.683 464.259 160.585 467.031 163.073C467.325 163.269 467.657 163.405 468.006 163.471C468.355 163.538 468.716 163.534 469.065 163.46C469.414 163.386 469.746 163.244 470.04 163.042C470.334 162.839 470.584 162.581 470.776 162.282C471.739 160.888 472.353 159.289 472.563 157.62C473.048 150.287 472.034 142.949 469.582 136.041Z" fill="#C6B4E4" fill-opacity="0.5"/>
<path d="M436.295 170.52C427.343 173.697 420.202 177.603 415.562 184.823C414.164 187.133 413.028 189.585 412.173 192.136C410.572 196.576 409.255 201.123 407.711 205.577C407.149 207.054 406.434 208.472 405.576 209.807C404.473 211.674 404.408 213.381 406.23 214.782C407.874 216.048 409.726 217.028 411.708 217.681C422.098 220.642 432.552 222.591 443.504 220.075C451.467 218.238 458.312 214.94 463.364 208.286C467.932 202.255 472.236 196.127 474.702 188.951C475.268 186.956 475.692 184.926 475.971 182.876C476.069 182.383 476.01 181.873 475.801 181.419C475.592 180.964 475.244 180.586 474.805 180.338C473.476 179.392 472.217 178.354 471.037 177.232C470.25 176.475 469.641 175.557 469.253 174.54C468.865 173.524 468.706 172.434 468.789 171.346C468.76 169.707 468.408 168.093 467.754 166.592C467.552 166.022 466.226 165.52 465.514 165.651C458.305 166.579 451.112 167.552 443.954 168.721C441.373 169.192 438.817 169.793 436.295 170.52Z" fill="#C6B4E4" fill-opacity="0.5"/>
<path d="M486.519 175.279C485.307 178.678 482.221 179.235 479.337 180.363C479.518 181.344 479.761 182.313 480.067 183.263C481.105 186.405 481.288 189.769 480.6 193.021C479.876 197.844 479.262 202.679 478.427 207.489C477.891 210.766 478.044 214.111 478.877 217.313C479.71 220.515 481.204 223.506 483.267 226.099C485.819 229.48 488.564 232.714 491.489 235.784C494.183 238.699 497.121 241.406 499.81 244.305C503.427 248.229 504.751 248.28 508.743 244.606C512.362 241.066 515.186 236.815 517.027 232.135C520.815 223.361 522.888 214.327 521.433 204.758C520.859 200.309 518.928 196.151 515.895 192.836C508.714 184.717 499.302 178.827 488.775 175.867C488.063 175.651 487.352 175.487 486.519 175.279Z" fill="#C6B4E4" fill-opacity="0.5"/>
<path d="M511.232 152.16C504.053 154.946 497.148 158.39 490.61 162.448C490.058 162.812 489.525 163.204 489.014 163.622C486.179 165.879 485.685 167.373 487.108 170.635C487.346 171.054 487.679 171.412 488.08 171.681C488.482 171.951 488.942 172.126 489.426 172.191C495.422 172.424 500.325 175.145 505.226 178.161C510.534 181.539 516.52 183.759 522.788 184.673C529.056 185.587 535.464 185.176 541.587 183.466C549.857 181.112 557.626 177.259 564.494 172.106C567.505 169.944 569.72 167.282 569.447 163.23C569.481 162.249 569.287 161.276 568.879 160.385C568.471 159.495 567.86 158.711 567.094 158.094C565.399 156.831 563.584 155.731 561.674 154.81C550.406 149.574 538.612 146.834 526.013 148.841C521.059 149.557 516.127 151.03 511.232 152.16Z" fill="#C6B4E4" fill-opacity="0.5"/>
<path d="M484.494 167.681C484.363 167.311 484.231 166.941 483.98 166.631C481.964 162.989 478.168 161.299 475.137 162.705C473.454 163.648 472.194 165.187 471.615 167.006C471.036 168.826 471.183 170.788 472.025 172.489C472.625 173.862 473.502 175.098 474.603 176.122C475.348 176.877 476.289 177.414 477.326 177.676C478.362 177.939 479.454 177.916 480.485 177.611C481.516 177.306 482.445 176.73 483.174 175.945C483.902 175.16 484.402 174.196 484.619 173.157C484.889 171.362 484.972 169.547 484.868 167.739L484.494 167.681Z" fill="#C6B4E4" fill-opacity="0.5"/>
</svg>
